<svg width="200" height="200" viewBox="0 0 200 200" xmlns="http://www.w3.org/2000/svg">
  <!-- Badge Circle -->
  <circle cx="100" cy="100" r="90" fill="#4CAF50" />
  <circle cx="100" cy="100" r="80" fill="#43A047" />
  
  <!-- Badge Inner Circle -->
  <circle cx="100" cy="100" r="70" fill="#388E3C" />
  
  <!-- Badge Rim Highlight -->
  <path d="M 100 20 A 80 80 0 0 1 180 100" fill="none" stroke="#81C784" stroke-width="5" />
  
  <!-- Sprout Icon -->
  <g transform="translate(60, 60) scale(0.8)">
    <!-- Soil -->
    <path d="M 50 120 Q 50 100 70 100 L 130 100 Q 150 100 150 120 Z" fill="#795548" />
    
    <!-- Plant Stem -->
    <path d="M 100 100 C 100 80 100 60 100 40" fill="none" stroke="#81C784" stroke-width="10" stroke-linecap="round" />
    
    <!-- Leaves -->
    <path d="M 100 70 C 120 60 140 80 130 95" fill="#81C784" />
    <path d="M 100 85 C 80 75 60 95 70 110" fill="#81C784" />
    
    <!-- Small Leaf at Top -->
    <path d="M 100 40 C 110 30 120 40 100 50" fill="#81C784" />
  </g>
  
  <!-- Badge Text -->
  <text x="100" y="160" font-family="Arial, sans-serif" font-size="24" font-weight="bold" text-anchor="middle" fill="white">BEGINNER</text>
</svg>
