<svg width="200" height="200" viewBox="0 0 200 200" xmlns="http://www.w3.org/2000/svg">
  <!-- Light Rays -->
  <g fill="none" stroke="#FFD700" stroke-width="2">
    <path d="M 100 10 L 100 30" />
    <path d="M 40 40 L 55 55" />
    <path d="M 10 100 L 30 100" />
    <path d="M 40 160 L 55 145" />
    <path d="M 160 40 L 145 55" />
    <path d="M 170 100 L 190 100" />
    <path d="M 160 160 L 145 145" />
  </g>
  
  <!-- Lightbulb Glass -->
  <ellipse cx="100" cy="100" rx="50" ry="60" fill="#FFFACD" fill-opacity="0.7" />
  <ellipse cx="100" cy="100" rx="45" ry="55" fill="#FFFFE0" fill-opacity="0.9" />
  
  <!-- Lightbulb Inner Glow -->
  <ellipse cx="100" cy="90" rx="35" ry="45" fill="#FFFF99" />
  <ellipse cx="100" cy="85" rx="25" ry="35" fill="#FFD700" />
  
  <!-- Highlight -->
  <ellipse cx="85" cy="75" rx="10" ry="15" fill="white" fill-opacity="0.6" />
  
  <!-- Bulb Base -->
  <path d="M 80 160 L 80 175 L 120 175 L 120 160 Z" fill="#A0A0A0" />
  
  <!-- Bulb Threads -->
  <path d="M 85 175 L 85 185 L 115 185 L 115 175 Z" fill="#808080" />
  <path d="M 90 185 L 90 190 L 110 190 L 110 185 Z" fill="#606060" />
  
  <!-- Filament -->
  <path d="M 90 130 C 90 110, 110 110, 110 130 C 110 150, 90 150, 90 130 Z" fill="none" stroke="#FFD700" stroke-width="2" />
</svg>
