<svg width="320" height="80" viewBox="0 0 320 80" xmlns="http://www.w3.org/2000/svg" role="img" aria-label="Kids Learning AI">
  <defs>
    <radialGradient id="kla-space-bg" cx="30%" cy="30%" r="80%">
      <stop offset="0%" stop-color="#3b1f6e"/>
      <stop offset="55%" stop-color="#1a0f3d"/>
      <stop offset="100%" stop-color="#0b0620"/>
    </radialGradient>
    <linearGradient id="kla-orbit" x1="0%" y1="0%" x2="100%" y2="100%">
      <stop offset="0%" stop-color="#a78bfa"/>
      <stop offset="100%" stop-color="#7c3aed"/>
    </linearGradient>
    <linearGradient id="kla-star" x1="0%" y1="0%" x2="100%" y2="100%">
      <stop offset="0%" stop-color="#fcd34d"/>
      <stop offset="100%" stop-color="#fbbf24"/>
    </linearGradient>
    <linearGradient id="kla-text" x1="0%" y1="0%" x2="100%" y2="0%">
      <stop offset="0%" stop-color="#e9d5ff"/>
      <stop offset="100%" stop-color="#c4b5fd"/>
    </linearGradient>
  </defs>

  <rect x="0" y="0" width="80" height="80" rx="18" fill="url(#kla-space-bg)"/>
  <circle cx="14" cy="16" r="1.2" fill="#e9d5ff" opacity="0.85"/>
  <circle cx="66" cy="12" r="1" fill="#e9d5ff" opacity="0.7"/>
  <circle cx="70" cy="58" r="1.4" fill="#e9d5ff" opacity="0.8"/>
  <circle cx="10" cy="62" r="0.9" fill="#e9d5ff" opacity="0.6"/>
  <circle cx="58" cy="68" r="1" fill="#e9d5ff" opacity="0.7"/>

  <ellipse cx="40" cy="42" rx="26" ry="9" fill="none" stroke="url(#kla-orbit)" stroke-width="2" opacity="0.8" transform="rotate(-20 40 42)"/>

  <circle cx="40" cy="40" r="13" fill="url(#kla-orbit)"/>
  <path d="M40 31 v18 M31 40 h18 M33.5 33.5 l13 13 M46.5 33.5 l-13 13" stroke="#1a0f3d" stroke-width="1.4" opacity="0.35"/>

  <path d="M58 20 l2.4 5.2 5.2 2.4 -5.2 2.4 -2.4 5.2 -2.4 -5.2 -5.2 -2.4 5.2 -2.4 Z" fill="url(#kla-star)"/>

  <text x="96" y="48" font-family="Verdana, Geneva, sans-serif" font-size="28" font-weight="700" fill="url(#kla-text)">Kids Learning</text>
  <text x="248" y="48" font-family="Verdana, Geneva, sans-serif" font-size="28" font-weight="700" fill="url(#kla-star)">AI</text>
</svg>
