<svg width="64" height="64" viewBox="0 0 64 64" xmlns="http://www.w3.org/2000/svg" role="img" aria-label="Kids Learning AI">
  <defs>
    <radialGradient id="kla-mark-bg" cx="30%" cy="30%" r="80%">
      <stop offset="0%" stop-color="#3b1f6e"/>
      <stop offset="55%" stop-color="#1a0f3d"/>
      <stop offset="100%" stop-color="#0b0620"/>
    </radialGradient>
    <linearGradient id="kla-mark-orbit" x1="0%" y1="0%" x2="100%" y2="100%">
      <stop offset="0%" stop-color="#a78bfa"/>
      <stop offset="100%" stop-color="#7c3aed"/>
    </linearGradient>
    <linearGradient id="kla-mark-star" x1="0%" y1="0%" x2="100%" y2="100%">
      <stop offset="0%" stop-color="#fcd34d"/>
      <stop offset="100%" stop-color="#fbbf24"/>
    </linearGradient>
  </defs>

  <rect x="0" y="0" width="64" height="64" rx="14" fill="url(#kla-mark-bg)"/>
  <circle cx="11" cy="13" r="1" fill="#e9d5ff" opacity="0.85"/>
  <circle cx="53" cy="10" r="0.8" fill="#e9d5ff" opacity="0.7"/>
  <circle cx="56" cy="46" r="1.1" fill="#e9d5ff" opacity="0.8"/>
  <circle cx="8" cy="50" r="0.7" fill="#e9d5ff" opacity="0.6"/>

  <ellipse cx="32" cy="34" rx="21" ry="7.2" fill="none" stroke="url(#kla-mark-orbit)" stroke-width="2" opacity="0.85" transform="rotate(-20 32 34)"/>

  <circle cx="32" cy="32" r="10.5" fill="url(#kla-mark-orbit)"/>
  <path d="M32 25 v14 M25 32 h14 M27 27 l10 10 M37 27 l-10 10" stroke="#1a0f3d" stroke-width="1.2" opacity="0.35"/>

  <path d="M48 14 l2 4.3 4.3 2 -4.3 2 -2 4.3 -2 -4.3 -4.3 -2 4.3 -2 Z" fill="url(#kla-mark-star)"/>
</svg>
